<mxfile host="app.diagrams.net" modified="2021-11-26T09:18:57.209Z" agent="5.0 (Windows NT 10.0; Win64; x64) AppleWebKit/537.36 (KHTML, like Gecko) Chrome/96.0.4664.55 Safari/537.36 Edg/96.0.1054.34" etag="8zW4JKz3s-gFcPD3WnqE" version="15.0.2" type="github">
  <diagram id="C5RBs43oDa-KdzZeNtuy" name="Page-1">
    <mxGraphModel dx="1730" dy="972" grid="1" gridSize="10" guides="1" tooltips="1" connect="1" arrows="1" fold="1" page="1" pageScale="1" pageWidth="827" pageHeight="1169" math="0" shadow="0">
      <root>
        <mxCell id="WIyWlLk6GJQsqaUBKTNV-0" />
        <mxCell id="WIyWlLk6GJQsqaUBKTNV-1" parent="WIyWlLk6GJQsqaUBKTNV-0" />
        <mxCell id="Ztp9oUhVq98JLiMy4QQe-45" style="edgeStyle=orthogonalEdgeStyle;rounded=0;orthogonalLoop=1;jettySize=auto;html=1;exitX=0.5;exitY=1;exitDx=0;exitDy=0;entryX=0.5;entryY=0;entryDx=0;entryDy=0;" parent="WIyWlLk6GJQsqaUBKTNV-1" source="Ztp9oUhVq98JLiMy4QQe-34" target="Ztp9oUhVq98JLiMy4QQe-35" edge="1">
          <mxGeometry relative="1" as="geometry" />
        </mxCell>
        <mxCell id="Ztp9oUhVq98JLiMy4QQe-34" value="&lt;font style=&quot;font-size: 16px&quot;&gt;bind class&amp;nbsp;&lt;/font&gt;" style="rounded=1;whiteSpace=wrap;html=1;fontSize=12;glass=0;strokeWidth=1;shadow=0;" parent="WIyWlLk6GJQsqaUBKTNV-1" vertex="1">
          <mxGeometry x="591.25" y="170" width="120" height="40" as="geometry" />
        </mxCell>
        <mxCell id="Ztp9oUhVq98JLiMy4QQe-37" value="" style="edgeStyle=orthogonalEdgeStyle;rounded=0;orthogonalLoop=1;jettySize=auto;html=1;" parent="WIyWlLk6GJQsqaUBKTNV-1" source="Ztp9oUhVq98JLiMy4QQe-35" target="Ztp9oUhVq98JLiMy4QQe-36" edge="1">
          <mxGeometry relative="1" as="geometry" />
        </mxCell>
        <mxCell id="Ztp9oUhVq98JLiMy4QQe-35" value="&lt;font style=&quot;font-size: 16px&quot;&gt;尝试将所有的成员函数替换成C++实现&lt;/font&gt;" style="rounded=1;whiteSpace=wrap;html=1;fontSize=12;glass=0;strokeWidth=1;shadow=0;" parent="WIyWlLk6GJQsqaUBKTNV-1" vertex="1">
          <mxGeometry x="550" y="240" width="205" height="40" as="geometry" />
        </mxCell>
        <mxCell id="Ztp9oUhVq98JLiMy4QQe-39" value="" style="edgeStyle=orthogonalEdgeStyle;rounded=0;orthogonalLoop=1;jettySize=auto;html=1;" parent="WIyWlLk6GJQsqaUBKTNV-1" source="Ztp9oUhVq98JLiMy4QQe-36" target="Ztp9oUhVq98JLiMy4QQe-38" edge="1">
          <mxGeometry relative="1" as="geometry" />
        </mxCell>
        <mxCell id="Ztp9oUhVq98JLiMy4QQe-36" value="&lt;font style=&quot;font-size: 16px&quot;&gt;从函数的PyCodeObject获取当前脚本函数的md5&lt;/font&gt;" style="whiteSpace=wrap;html=1;rounded=1;shadow=0;strokeWidth=1;glass=0;" parent="WIyWlLk6GJQsqaUBKTNV-1" vertex="1">
          <mxGeometry x="520" y="320" width="265" height="60" as="geometry" />
        </mxCell>
        <mxCell id="Ztp9oUhVq98JLiMy4QQe-42" value="" style="edgeStyle=orthogonalEdgeStyle;rounded=0;orthogonalLoop=1;jettySize=auto;html=1;" parent="WIyWlLk6GJQsqaUBKTNV-1" source="Ztp9oUhVq98JLiMy4QQe-38" target="Ztp9oUhVq98JLiMy4QQe-41" edge="1">
          <mxGeometry relative="1" as="geometry" />
        </mxCell>
        <mxCell id="Ztp9oUhVq98JLiMy4QQe-38" value="&lt;font style=&quot;font-size: 16px&quot;&gt;获取生成代码时该函数的静态md5&lt;/font&gt;" style="whiteSpace=wrap;html=1;rounded=1;shadow=0;strokeWidth=1;glass=0;" parent="WIyWlLk6GJQsqaUBKTNV-1" vertex="1">
          <mxGeometry x="540" y="420" width="225" height="60" as="geometry" />
        </mxCell>
        <mxCell id="Ztp9oUhVq98JLiMy4QQe-48" style="edgeStyle=orthogonalEdgeStyle;rounded=0;orthogonalLoop=1;jettySize=auto;html=1;entryX=0;entryY=0.5;entryDx=0;entryDy=0;exitX=0;exitY=0.5;exitDx=0;exitDy=0;" parent="WIyWlLk6GJQsqaUBKTNV-1" source="Ztp9oUhVq98JLiMy4QQe-41" target="Ztp9oUhVq98JLiMy4QQe-35" edge="1">
          <mxGeometry relative="1" as="geometry">
            <Array as="points">
              <mxPoint x="470" y="545" />
              <mxPoint x="470" y="260" />
            </Array>
          </mxGeometry>
        </mxCell>
        <mxCell id="8z-wRi22okTipOvPncVo-0" style="edgeStyle=orthogonalEdgeStyle;rounded=0;orthogonalLoop=1;jettySize=auto;html=1;exitX=1;exitY=0.5;exitDx=0;exitDy=0;" edge="1" parent="WIyWlLk6GJQsqaUBKTNV-1" source="Ztp9oUhVq98JLiMy4QQe-41" target="Ztp9oUhVq98JLiMy4QQe-53">
          <mxGeometry relative="1" as="geometry" />
        </mxCell>
        <mxCell id="Ztp9oUhVq98JLiMy4QQe-41" value="&lt;font style=&quot;font-size: 16px&quot;&gt;两个md5相等&lt;/font&gt;" style="rhombus;whiteSpace=wrap;html=1;shadow=0;fontFamily=Helvetica;fontSize=12;align=center;strokeWidth=1;spacing=6;spacingTop=-4;" parent="WIyWlLk6GJQsqaUBKTNV-1" vertex="1">
          <mxGeometry x="592.5" y="505" width="120" height="80" as="geometry" />
        </mxCell>
        <mxCell id="Ztp9oUhVq98JLiMy4QQe-50" value="&lt;font style=&quot;font-size: 16px&quot;&gt;No&lt;/font&gt;" style="text;whiteSpace=wrap;html=1;" parent="WIyWlLk6GJQsqaUBKTNV-1" vertex="1">
          <mxGeometry x="520" y="515" width="40" height="30" as="geometry" />
        </mxCell>
        <mxCell id="Ztp9oUhVq98JLiMy4QQe-52" value="&lt;font style=&quot;font-size: 16px&quot;&gt;Yes&lt;/font&gt;" style="text;whiteSpace=wrap;html=1;" parent="WIyWlLk6GJQsqaUBKTNV-1" vertex="1">
          <mxGeometry x="725" y="515" width="40" height="30" as="geometry" />
        </mxCell>
        <mxCell id="8z-wRi22okTipOvPncVo-1" style="edgeStyle=orthogonalEdgeStyle;rounded=0;orthogonalLoop=1;jettySize=auto;html=1;" edge="1" parent="WIyWlLk6GJQsqaUBKTNV-1" source="Ztp9oUhVq98JLiMy4QQe-53">
          <mxGeometry relative="1" as="geometry">
            <mxPoint x="933" y="462" as="targetPoint" />
          </mxGeometry>
        </mxCell>
        <mxCell id="Ztp9oUhVq98JLiMy4QQe-53" value="&lt;font style=&quot;font-size: 16px&quot;&gt;将cpp method对应的descriptor放入到类的tp_dict中&lt;/font&gt;" style="whiteSpace=wrap;html=1;rounded=1;shadow=0;strokeWidth=1;glass=0;" parent="WIyWlLk6GJQsqaUBKTNV-1" vertex="1">
          <mxGeometry x="790" y="515" width="285" height="60" as="geometry" />
        </mxCell>
        <mxCell id="Ztp9oUhVq98JLiMy4QQe-54" value="&lt;font style=&quot;font-size: 16px&quot;&gt;该成员函数被切换成Cpp版本&lt;/font&gt;" style="whiteSpace=wrap;html=1;rounded=1;shadow=0;strokeWidth=1;glass=0;" parent="WIyWlLk6GJQsqaUBKTNV-1" vertex="1">
          <mxGeometry x="831.25" y="420" width="202.5" height="40" as="geometry" />
        </mxCell>
        <mxCell id="Ztp9oUhVq98JLiMy4QQe-57" value="&lt;font style=&quot;font-size: 17px&quot;&gt;运行时热更流程&lt;/font&gt;" style="text;html=1;strokeColor=none;fillColor=none;align=center;verticalAlign=middle;whiteSpace=wrap;rounded=0;" parent="WIyWlLk6GJQsqaUBKTNV-1" vertex="1">
          <mxGeometry x="625" y="600" width="240" height="20" as="geometry" />
        </mxCell>
      </root>
    </mxGraphModel>
  </diagram>
</mxfile>
